# xmcd CD database file
#
# Track frame offsets:
#	197
#	10905
#	23332
#	31697
#	42097
#	52525
#	70282
#	80585
#	94402
#	108777
#	118740
#	133777
#	145475
#	156342
#	169567
#	183612
#	197435
#	213467
#	221832
#	233460
#	245055
#	254137
#	262780
#	274757
#	287267
#
# Disc length: 3957 seconds
#
# Revision: 1
# Processed by: cddbd v1.5.1PL0 Copyright (c) Steve Scherf et al.
# Submitted via: CDex 1.51
#
DISCID=5c0f7319
DTITLE=Various Artist - Cool Town Bop
DYEAR=1992
DGENRE=Neo-Rockabilly
TTITLE0=Alexandros Perros and The Lonestars - Alcohol
TTITLE1=Freddie Fingers Lee - I Gotta New Love
TTITLE2=The Flames - Gipsy Beat
TTITLE3=Clarksdale Bluebeats - Polly Put The Kettle On
TTITLE4=The Roomates - Please I Wonder
TTITLE5=Clives Jive Five - The Darkside
TTITLE6=Ray Condo - One Hand Loose
TTITLE7=Pink Pedal Pushers - Makin' Love in a Cave
TTITLE8=Stompin' Pompadours - Curse of the Mummy's Tomb
TTITLE9=The Playboys - Cool Town Bop
TTITLE10=Jello Sal - She's Mine
TTITLE11=The Elevators - Heartache Underlined
TTITLE12=Twenty Flight Rock - Rockin' in your Arms
TTITLE13=The Rustlers - Ain't Mad About Nothin'
TTITLE14=The Jackals - Mohawk Twist
TTITLE15=The Overiders - Johnny Suede
TTITLE16=Cuttin' a Rug - The One for You
TTITLE17=The Prairie Dogs - Teacher's Pet
TTITLE18=The Rockin' Bandits - Brean Sands
TTITLE19=The Rockin' Barracudas - Werewolf
TTITLE20=Ubangi 4 - Go Ahead
TTITLE21=Johnny Fox and The Hunters - Oakie Boogie
TTITLE22=Cottie and The Alleycats - Mr. Alleycat
TTITLE23=Loveless - One More Time
TTITLE24=Niteshift Trio - Super Jet Rumble
EXTD=YEAR: 1992
EXTT0=
EXTT1=
EXTT2=
EXTT3=
EXTT4=
EXTT5=
EXTT6=
EXTT7=
EXTT8=
EXTT9=
EXTT10=
EXTT11=
EXTT12=
EXTT13=
EXTT14=
EXTT15=
EXTT16=
EXTT17=
EXTT18=
EXTT19=
EXTT20=
EXTT21=
EXTT22=
EXTT23=
EXTT24=
PLAYORDER=
